<?xml version="1.0" encoding="UTF-8"?>
<svg width="759px" height="925px" viewBox="0 0 759 925" version="1.1" xmlns="http://www.w3.org/2000/svg" xmlns:xlink="http://www.w3.org/1999/xlink">
    <!-- Generator: Sketch 64 (93537) - https://sketch.com -->
    <title>avataaars</title>
    <desc>Created with Sketch.</desc>
    <defs>
        <path d="M470.58,548.217745 L470.58,617.930328 L485.76,617.930328 L485.76,617.930328 C636.666285,617.930328 759,740.134572 759,890.881148 L759,925 L0,925 L0,890.881148 C0,740.134572 122.333715,617.930328 273.24,617.930328 L273.24,617.930328 L288.42,617.930328 L288.42,548.217745 C223.004198,517.174976 175.982592,453.731497 168.138002,378.648138 C146.032778,375.526445 129.03,356.550006 129.03,333.606557 L129.03,280.532787 C129.03,257.991626 145.441756,239.27958 166.98,235.669972 L166.98,212.295082 L166.98,212.295082 C166.98,95.0477457 262.128445,0 379.5,0 L379.5,0 L379.5,0 C496.871555,0 592.02,95.0477457 592.02,212.295082 L592.02,235.669972 C613.558245,239.27958 629.97,257.991626 629.97,280.532787 L629.97,333.606557 C629.97,356.550006 612.967224,375.526445 590.861997,378.648138 C583.017406,453.731497 535.9958,517.174976 470.58,548.217745 Z" id="path-1"></path>
        <path d="M470.58,548.217745 L470.58,617.930328 L485.76,617.930328 L485.76,617.930328 C636.666285,617.930328 759,740.134572 759,890.881148 L759,925 L0,925 L0,890.881148 C0,740.134572 122.333715,617.930328 273.24,617.930328 L273.24,617.930328 L288.42,617.930328 L288.42,548.217745 C223.004198,517.174976 175.982592,453.731497 168.138002,378.648138 C146.032778,375.526445 129.03,356.550006 129.03,333.606557 L129.03,280.532787 C129.03,257.991626 145.441756,239.27958 166.98,235.669972 L166.98,212.295082 L166.98,212.295082 C166.98,95.0477457 262.128445,0 379.5,0 L379.5,0 L379.5,0 C496.871555,0 592.02,95.0477457 592.02,212.295082 L592.02,235.669972 C613.558245,239.27958 629.97,257.991626 629.97,280.532787 L629.97,333.606557 C629.97,356.550006 612.967224,375.526445 590.861997,378.648138 C583.017406,453.731497 535.9958,517.174976 470.58,548.217745 Z" id="path-3"></path>
        <path d="M508.379991,1.11776843 C648.703915,12.6021537 759,129.979576 759,273.084929 L759,307 L0,307 L0,273.084929 C0,128.684406 112.301583,10.4796201 254.437317,0.832032158 C254.322911,2.24797718 254.265,3.67349075 254.265,5.1076655 C254.265,50.070251 311.184159,86.5196284 381.3975,86.5196284 C451.610841,86.5196284 508.53,50.070251 508.53,5.1076655 C508.53,3.76991869 508.479614,2.43970778 508.379991,1.11776843 Z" id="path-5"></path>
        <path d="M508.379991,1.11776843 C648.703915,12.6021537 759,129.979576 759,273.084929 L759,307 L0,307 L0,273.084929 C0,128.684406 112.301583,10.4796201 254.437317,0.832032158 C254.322911,2.24797718 254.265,3.67349075 254.265,5.1076655 C254.265,50.070251 311.184159,86.5196284 381.3975,86.5196284 C451.610841,86.5196284 508.53,50.070251 508.53,5.1076655 C508.53,3.76991869 508.479614,2.43970778 508.379991,1.11776843 Z" id="path-7"></path>
        <rect id="path-9" x="0" y="0" width="1002" height="1062"></rect>
        <path d="M282.48962,273.725072 C272.949496,282.426084 262.786721,286.339129 249.941857,283.602788 C247.731511,283.132359 238.720196,266.389695 216.340281,266.389695 C193.960365,266.389695 184.950319,283.132359 182.738704,283.602788 C169.89384,286.339129 159.731065,282.426084 150.190942,273.725072 C132.257082,257.366612 117.342633,234.808905 126.304491,210.197038 C130.975004,197.368689 138.571089,183.28502 152.389875,179.196991 C167.145807,174.833805 187.863208,179.189383 202.733272,176.209584 C207.550888,175.243369 212.813618,173.526498 216.340281,170.678571 C219.866943,173.526498 225.130941,175.243369 229.946021,176.209584 C244.817354,179.189383 265.534754,174.833805 280.290686,179.196991 C294.109473,183.28502 301.705555,197.368689 306.377338,210.197038 C315.339196,234.808905 300.424749,257.366612 282.48962,273.725072 M429.193921,0 C416.25013,31.8609604 421.249051,71.525832 418.85371,104.97063 C416.908053,132.155258 411.188615,172.900247 387.033347,190.456543 C374.681052,199.434549 352.196775,214.523615 336.056643,210.314666 C324.946091,207.417645 323.760554,175.571721 309.159828,163.650332 C292.598119,150.130067 271.917695,144.189421 251.066085,145.106644 C242.068542,145.502603 223.87161,145.408626 216.340655,152.322882 C208.809701,145.408626 190.614046,145.502603 181.616503,145.106644 C160.763616,144.189421 140.083193,150.130067 123.521481,163.650332 C108.920755,175.571721 107.736498,207.417645 96.6259442,210.314666 C80.4858121,214.523615 58.0015371,199.434549 45.647961,190.456543 C21.4914183,172.900247 15.7745361,132.155258 13.8263247,104.97063 C11.4322605,71.525832 16.431179,31.8609604 3.48739078,0 C-2.80948351,0 1.34371958,61.1744971 1.34371958,61.1744971 L1.34371958,138.38285 C1.46380624,196.368369 37.7082015,283.157438 118.069044,316.297751 C137.722344,324.402389 182.239931,337.564286 216.340655,337.564286 C250.44138,337.564286 294.958968,325.655427 314.612268,317.550786 C394.973108,284.410476 431.217505,196.368369 431.338869,138.38285 L431.338869,61.1744971 C431.338869,61.1744971 435.490792,0 429.193921,0" id="path-11"></path>
    </defs>
    <g id="Page-1" stroke="none" stroke-width="1" fill="none" fill-rule="evenodd">
        <g id="-" transform="translate(-2885.000000, -477.000000)">
            <g id="avataaars" transform="translate(2763.000000, 340.000000)">
                <g id="Body" transform="translate(122.000000, 137.000000)">
                    <g id="path-5-link" fill="#D0C6AC" fill-rule="nonzero">
                        <path d="M470.58,548.217745 L470.58,617.930328 L485.76,617.930328 L485.76,617.930328 C636.666285,617.930328 759,740.134572 759,890.881148 L759,925 L0,925 L0,890.881148 C0,740.134572 122.333715,617.930328 273.24,617.930328 L273.24,617.930328 L288.42,617.930328 L288.42,548.217745 C223.004198,517.174976 175.982592,453.731497 168.138002,378.648138 C146.032778,375.526445 129.03,356.550006 129.03,333.606557 L129.03,280.532787 C129.03,257.991626 145.441756,239.27958 166.98,235.669972 L166.98,212.295082 L166.98,212.295082 C166.98,95.0477457 262.128445,0 379.5,0 L379.5,0 L379.5,0 C496.871555,0 592.02,95.0477457 592.02,212.295082 L592.02,235.669972 C613.558245,239.27958 629.97,257.991626 629.97,280.532787 L629.97,333.606557 C629.97,356.550006 612.967224,375.526445 590.861997,378.648138 C583.017406,453.731497 535.9958,517.174976 470.58,548.217745 Z" id="path-5"></path>
                    </g>
                    <g id="Skin/ðŸ‘¶ðŸ½-03-Brown-Clipped">
                        <mask id="mask-2" fill="white">
                            <use xlink:href="#path-1"></use>
                        </mask>
                        <g id="path-5"></g>
                        <g id="Skin/ðŸ‘¶ðŸ½-03-Brown" mask="url(#mask-2)">
                            <g transform="translate(-121.440000, 0.000000)" id="Color">
                                <g>
                                    <rect id="Rectangle" fill="#EDB98A" fill-rule="nonzero" x="0" y="0" width="1001.88" height="925"></rect>
                                </g>
                            </g>
                        </g>
                    </g>
                    <g id="Neck-Shadow-Clipped">
                        <mask id="mask-4" fill="white">
                            <use xlink:href="#path-3"></use>
                        </mask>
                        <g id="path-5"></g>
                        <path d="M592.02,299.487705 L592.02,386.680328 C592.02,503.927664 496.871555,598.97541 379.5,598.97541 C262.128445,598.97541 166.98,503.927664 166.98,386.680328 L166.98,299.487705 L166.98,356.352459 C166.98,473.599795 262.128445,568.647541 379.5,568.647541 C496.871555,568.647541 592.02,473.599795 592.02,356.352459 L592.02,299.487705 Z" id="Neck-Shadow" fill-opacity="0.100000001" fill="#000000" fill-rule="nonzero" mask="url(#mask-4)"></path>
                    </g>
                </g>
                <g id="Clothing/Shirt-Crew-Neck" transform="translate(122.000000, 755.000000)">
                    <g id="Clothes" fill="#E6E6E6">
                        <path d="M508.379991,1.11776843 C648.703915,12.6021537 759,129.979576 759,273.084929 L759,307 L0,307 L0,273.084929 C0,128.684406 112.301583,10.4796201 254.437317,0.832032158 C254.322911,2.24797718 254.265,3.67349075 254.265,5.1076655 C254.265,50.070251 311.184159,86.5196284 381.3975,86.5196284 C451.610841,86.5196284 508.53,50.070251 508.53,5.1076655 C508.53,3.76991869 508.479614,2.43970778 508.379991,1.11776843 Z" id="react-path-20"></path>
                    </g>
                    <g id="Color/Palette/Gray-01-Clipped">
                        <mask id="mask-6" fill="white">
                            <use xlink:href="#path-5"></use>
                        </mask>
                        <g id="react-path-20"></g>
                        <g id="Color/Palette/Gray-01" mask="url(#mask-6)" fill="#FF5C5C">
                            <g transform="translate(-121.440000, -109.913580)" id="ðŸ–Color">
                                <rect x="0" y="0" width="1001.88" height="416.91358"></rect>
                            </g>
                        </g>
                    </g>
                    <g id="Shadowy-Clipped">
                        <mask id="mask-8" fill="white">
                            <use xlink:href="#path-7"></use>
                        </mask>
                        <g id="react-path-20"></g>
                        <g id="Shadowy" opacity="0.599999964" mask="url(#mask-8)" fill-opacity="0.16">
                            <g transform="translate(230.060809, -91.210779)" id="Hola-ðŸ‘‹ðŸ¼">
                                <g>
                                    <ellipse id="Oval" fill="#000000" cx="151.336691" cy="102.003629" rx="150.415222" ry="102.006728"></ellipse>
                                </g>
                            </g>
                        </g>
                    </g>
                </g>
                <g id="Face" transform="translate(334.000000, 334.000000)" fill="#000000" fill-rule="nonzero">
                    <g id="Mouth/Default" transform="translate(113.863636, 231.652121)" fill-opacity="0.699999988">
                        <path d="M0,0 C0,29.3628045 23.7899603,53.1660606 53.1363636,53.1660606 L53.1363636,53.1660606 C82.4827669,53.1660606 106.272727,29.3628045 106.272727,0" id="Mouth"></path>
                    </g>
                    <g id="Nose/Default" transform="translate(121.454545, 159.498182)" fill-opacity="0.16">
                        <path d="M0,0 C0,16.7787454 20.3913946,30.3806061 45.5454545,30.3806061 L45.5454545,30.3806061 C70.6995145,30.3806061 91.0909091,16.7787454 91.0909091,0" id="Nose"></path>
                    </g>
                    <g id="Eyes/Default-ðŸ˜€" transform="translate(45.545455, 68.356364)" fill-opacity="0.599999964">
                        <ellipse id="Eye" cx="22.7727273" cy="22.7854545" rx="22.7727273" ry="22.7854545"></ellipse>
                        <ellipse id="Eye" cx="220.136364" cy="22.7854545" rx="22.7727273" ry="22.7854545"></ellipse>
                    </g>
                    <g id="Eyebrow/Outline/Default" fill-opacity="0.599999964">
                        <g id="I-Browse">
                            <path d="M13.7784313,42.3755404 C28.6372929,21.4557969 69.3730134,9.72497331 104.462397,18.3467738 C108.533774,19.3471503 112.644789,16.8557683 113.644607,12.7821164 C114.644424,8.70846439 112.154434,4.59515158 108.083057,3.59477503 C67.3327425,-6.41797097 20.1618326,7.16601907 1.40338693,33.5759746 C-1.02518881,36.9951586 -0.223690396,41.7368048 3.19358374,44.166738 C6.61085786,46.5966708 11.3498555,45.7947245 13.7784313,42.3755404 Z" id="Eyebrow"></path>
                            <path d="M233.914798,42.3755404 C248.773659,21.4557969 289.50938,9.72497331 324.598764,18.3467738 C328.67014,19.3471503 332.781155,16.8557683 333.780973,12.7821164 C334.780791,8.70846439 332.2908,4.59515158 328.219424,3.59477503 C287.469109,-6.41797097 240.298199,7.16601907 221.539753,33.5759746 C219.111178,36.9951586 219.912676,41.7368048 223.32995,44.166738 C226.747224,46.5966708 231.486222,45.7947245 233.914798,42.3755404 Z" id="Eyebrow" transform="translate(277.068768, 22.934312) scale(-1, 1) translate(-277.068768, -22.934312) "></path>
                        </g>
                    </g>
                </g>
                <g id="Top">
                    <g id="Top/No-Hair-Clipped">
                        <mask id="mask-10" fill="white">
                            <use xlink:href="#path-9"></use>
                        </mask>
                        <g id="react-path-9"></g>
                        <g id="Top/No-Hair" mask="url(#mask-10)">
                            <g transform="translate(284.659091, 371.700000)" id="Group">
                                <g>
                                    <g id="Facial-Hair/Beard-Light">
                                        <g id="Lite-Beard" fill="#331B0C">
                                            <path d="M282.48962,273.725072 C272.949496,282.426084 262.786721,286.339129 249.941857,283.602788 C247.731511,283.132359 238.720196,266.389695 216.340281,266.389695 C193.960365,266.389695 184.950319,283.132359 182.738704,283.602788 C169.89384,286.339129 159.731065,282.426084 150.190942,273.725072 C132.257082,257.366612 117.342633,234.808905 126.304491,210.197038 C130.975004,197.368689 138.571089,183.28502 152.389875,179.196991 C167.145807,174.833805 187.863208,179.189383 202.733272,176.209584 C207.550888,175.243369 212.813618,173.526498 216.340281,170.678571 C219.866943,173.526498 225.130941,175.243369 229.946021,176.209584 C244.817354,179.189383 265.534754,174.833805 280.290686,179.196991 C294.109473,183.28502 301.705555,197.368689 306.377338,210.197038 C315.339196,234.808905 300.424749,257.366612 282.48962,273.725072 M429.193921,0 C416.25013,31.8609604 421.249051,71.525832 418.85371,104.97063 C416.908053,132.155258 411.188615,172.900247 387.033347,190.456543 C374.681052,199.434549 352.196775,214.523615 336.056643,210.314666 C324.946091,207.417645 323.760554,175.571721 309.159828,163.650332 C292.598119,150.130067 271.917695,144.189421 251.066085,145.106644 C242.068542,145.502603 223.87161,145.408626 216.340655,152.322882 C208.809701,145.408626 190.614046,145.502603 181.616503,145.106644 C160.763616,144.189421 140.083193,150.130067 123.521481,163.650332 C108.920755,175.571721 107.736498,207.417645 96.6259442,210.314666 C80.4858121,214.523615 58.0015371,199.434549 45.647961,190.456543 C21.4914183,172.900247 15.7745361,132.155258 13.8263247,104.97063 C11.4322605,71.525832 16.431179,31.8609604 3.48739078,0 C-2.80948351,0 1.34371958,61.1744971 1.34371958,61.1744971 L1.34371958,138.38285 C1.46380624,196.368369 37.7082015,283.157438 118.069044,316.297751 C137.722344,324.402389 182.239931,337.564286 216.340655,337.564286 C250.44138,337.564286 294.958968,325.655427 314.612268,317.550786 C394.973108,284.410476 431.217505,196.368369 431.338869,138.38285 L431.338869,61.1744971 C431.338869,61.1744971 435.490792,0 429.193921,0" id="react-path-13"></path>
                                        </g>
                                        <g id="Color/Hair/Brown-Clipped">
                                            <mask id="mask-12" fill="white">
                                                <use xlink:href="#path-11"></use>
                                            </mask>
                                            <g id="react-path-13"></g>
                                            <g id="Color/Hair/Brown" mask="url(#mask-12)">
                                                <g transform="translate(-223.931818, -98.614286)" id="Color">
                                                    <g>
                                                        <rect id="Rectangle" fill="#A55728" fill-rule="nonzero" x="0" y="0" width="1002" height="925.457143"></rect>
                                                    </g>
                                                </g>
                                            </g>
                                        </g>
                                    </g>
                                </g>
                            </g>
                        </g>
                    </g>
                </g>
            </g>
        </g>
    </g>
</svg>