<?xml version="1.0" encoding="UTF-8"?>
<svg width="121px" height="118px" viewBox="0 0 121 118" version="1.1" xmlns="http://www.w3.org/2000/svg" xmlns:xlink="http://www.w3.org/1999/xlink">
    <!-- Generator: Sketch 53.2 (72643) - https://sketchapp.com -->
    <title>Octocat</title>
    <desc>Created with Sketch.</desc>
    <g id="Octocat" stroke="none" stroke-width="1" fill="none" fill-rule="evenodd">
        <path d="M0,60.4932275 C0,87.2211623 17.3352349,109.896982 41.373935,117.896028 C44.3975574,118.456011 45.5076216,116.583724 45.5076216,114.985918 C45.5076216,113.543385 45.4515173,108.778017 45.4254688,103.72314 C28.594171,107.382566 25.0425668,96.5856065 25.0425668,96.5856065 C22.2904492,89.5933279 18.3250756,87.734063 18.3250756,87.734063 C12.8358684,83.9794698 18.738845,84.0566053 18.738845,84.0566053 C24.814142,84.4823529 28.0130905,90.2905522 28.0130905,90.2905522 C33.4091244,99.5387924 42.1664086,96.8650973 45.6188284,95.319383 C46.1618381,91.4105189 47.7297537,88.7398291 49.459971,87.2301782 C36.021983,85.700492 21.8957152,80.5133833 21.8957152,57.3336792 C21.8957152,50.7290814 24.2591099,45.3326051 28.1293066,41.0961658 C27.5011385,39.5714884 25.4302877,33.4196857 28.7153964,25.0870534 C28.7153964,25.0870534 33.7958435,23.4611984 45.3573422,31.2879423 C50.1833161,29.9475886 55.3589402,29.2754083 60.5005009,29.2523678 C65.6420617,29.2754083 70.8216932,29.9475886 75.6566839,31.2879423 C87.2041565,23.4611984 92.2775906,25.0870534 92.2775906,25.0870534 C95.5707141,33.4196857 93.4988615,39.5714884 92.8706934,41.0961658 C96.7499069,45.3326051 99.0972718,50.7290814 99.0972718,57.3336792 C99.0972718,80.5684801 84.9439536,85.6844638 71.4719023,87.1820937 C73.6419375,89.0593903 75.575533,92.740855 75.575533,98.3847659 C75.575533,106.477978 75.5054026,112.992417 75.5054026,114.985918 C75.5054026,116.595745 76.5944277,118.482057 79.6611302,117.888014 C103.686806,109.879952 121,87.2121465 121,60.4932275 C121,27.0825576 93.9126309,0 60.5005009,0 C27.0913765,0 0,27.0825576 0,60.4932275 Z" id="Fill-52" fill="#FFFFFE"></path>
        <path d="M22.9462504,86.7758924 C22.7861959,87.0040089 22.2181829,87.0714587 21.7007134,86.9153391 C21.1736166,86.7660402 20.877576,86.4560746 21.0484612,86.2279581 C21.2049055,85.9937787 21.7741219,85.9293604 22.3000153,86.0847222 C22.8283155,86.2347789 23.1291698,86.5477759 22.9462504,86.7758924" id="Fill-53" fill="#FFFFFE"></path>
        <path d="M25.792549,89.8449803 C25.4673881,90.139173 24.8317438,90.0025442 24.400454,89.5375655 C23.9544869,89.0736886 23.8709386,88.4533496 24.2006156,88.1547496 C24.5359377,87.8605568 25.1523885,87.9982875 25.5994847,88.4621644 C26.0454519,88.9315505 26.1323873,89.5474821 25.792549,89.8449803" id="Fill-54" fill="#FFFFFE"></path>
        <path d="M27.701975,92.9047923 C27.3145695,93.1417818 26.6811092,92.9195465 26.2895155,92.4243582 C25.90211,91.9291699 25.90211,91.3353128 26.2978918,91.0974011 C26.6905325,90.8594894 27.3145695,91.0734255 27.7113984,91.5649252 C28.0977569,92.0674906 28.0977569,92.6622699 27.701975,92.9047923" id="Fill-55" fill="#FFFFFE"></path>
        <path d="M30.8330112,96.8013218 C30.5401749,97.1312026 29.9164601,97.0426319 29.4599539,96.5925478 C28.9928314,96.1524054 28.8627802,95.5278912 29.1565012,95.1980103 C29.4528763,94.8672256 30.0801299,94.9603153 30.5401749,95.4067842 C31.0037586,95.8460229 31.1453109,96.475056 30.8330112,96.8013218" id="Fill-56" fill="#FFFFFE"></path>
        <path d="M35.9690997,98.4022569 C35.7974904,98.9051291 34.9993898,99.1337074 34.1954121,98.9200133 C33.3926098,98.6999403 32.8672033,98.1109525 33.0294094,97.6027645 C33.196317,97.0967028 33.9979439,96.8585561 34.8077986,97.0871344 C35.6094254,97.3061443 36.1360073,97.8908794 35.9690997,98.4022569" id="Fill-57" fill="#FFFFFE"></path>
        <path d="M40.9995788,98.9788091 C41.0192292,99.5318734 40.3488031,99.9905392 39.5188619,99.9994238 C38.684297,100.018303 38.0092473,99.5707434 38,99.0265636 C38,98.4679464 38.6553993,98.0137229 39.4899642,98.0003961 C40.3199054,97.9848481 40.9995788,98.4290764 40.9995788,98.9788091" id="Fill-58" fill="#FFFFFE"></path>
        <path d="M44.9888156,97.7515501 C45.0886477,98.2805396 44.5093893,98.823679 43.6817116,98.9673552 C42.8679639,99.107766 42.1145798,98.7812292 42.0112652,98.2565936 C41.9102723,97.7145426 42.4999782,97.1714032 43.312565,97.0309924 C44.1414036,96.8960239 44.8831793,97.213853 44.9888156,97.7515501" id="Fill-59" fill="#FFFFFE"></path>
    </g>
</svg>