<?xml version="1.0" encoding="UTF-8"?>
<svg width="320px" height="320px" viewBox="0 0 320 320" version="1.1" xmlns="http://www.w3.org/2000/svg" xmlns:xlink="http://www.w3.org/1999/xlink">
    <!-- Generator: Sketch 53.2 (72643) - https://sketchapp.com -->
    <title>Group</title>
    <desc>Created with Sketch.</desc>
    <g id="Page-1" stroke="none" stroke-width="1" fill="none" fill-rule="evenodd">
        <g id="Group">
            <rect id="Rectangle" fill="#E91E63" x="0" y="0" width="320" height="320"></rect>
            <path d="M90.8769531,223.835938 L90.8769531,115.762695 L56.5146484,115.762695 L56.5146484,100.261719 L110.822266,100.261719 L110.822266,223.835938 C110.822266,237.927805 107.588411,248.785606 101.120605,256.409668 C94.6527997,264.03373 85.4570909,267.845703 73.5332031,267.845703 L46,267.845703 L46,250.935547 L71.3652344,250.935547 C77.8691731,250.935547 82.7470541,248.677269 85.9990234,244.160645 C89.2509928,239.64402 90.8769531,232.869186 90.8769531,223.835938 Z M90.8769531,53 L110.822266,53 L110.822266,78.2568359 L90.8769531,78.2568359 L90.8769531,53 Z M180.630859,175.707031 L180.630859,100.478516 L200.576172,100.478516 L200.576172,175.707031 C200.576172,186.619195 202.509258,194.640599 206.375488,199.771484 C210.241719,204.902369 216.221639,207.467773 224.31543,207.467773 C233.710008,207.467773 240.900366,204.161654 245.886719,197.549316 C250.873072,190.936979 253.366211,181.45221 253.366211,169.094727 L253.366211,100.478516 L273.419922,100.478516 L273.419922,221.667969 L253.366211,221.667969 L253.366211,203.457031 C249.825178,210.466832 245.001495,215.778302 238.89502,219.391602 C232.788544,223.004901 225.652385,224.811523 217.486328,224.811523 C205.056578,224.811523 195.806671,220.746623 189.736328,212.616699 C183.665985,204.486776 180.630859,192.183676 180.630859,175.707031 Z" id="ju" fill="#FFFFFF" fill-rule="nonzero"></path>
        </g>
    </g>
</svg>